<svg xmlns="http://www.w3.org/2000/svg" width="435.073" height="157.99" viewBox="0 0 435.073 157.99">
  <g id="Logo" transform="translate(0 -26)">
    <g id="Group_1" data-name="Group 1" transform="translate(49.36 76.797)">
      <path id="Path_1" data-name="Path 1" d="M265.257,257.391v2.024c0,5.83-1.867,9.554-6.026,11.417,5.007,1.862,6.959,6.154,6.959,12.145v4.615c0,8.744-4.838,13.441-14.173,13.441H237.335V244.355h14.088C261.1,244.355,265.257,248.646,265.257,257.391Zm-18.586-4.939v14.979h3.649c3.48,0,5.6-1.458,5.6-5.992v-3.158c0-4.048-1.443-5.83-4.753-5.83Zm0,23.076v17.408h5.347c3.14,0,4.838-1.377,4.838-5.587V282.41c0-5.263-1.782-6.882-6.026-6.882Z" transform="translate(-237.335 -244.355)" fill="#fdc612"/>
      <path id="Path_2" data-name="Path 2" d="M403.086,244.355h9.336v48.581h15.362v8.1h-24.7Z" transform="translate(-368.63 -244.355)" fill="#fdc612"/>
    </g>
    <path id="Path_3" data-name="Path 3" d="M252.162,210.487A41.784,41.784,0,1,1,210.378,168.7,41.784,41.784,0,0,1,252.162,210.487ZM210.378,166a44.487,44.487,0,1,0,44.486,44.487A44.487,44.487,0,0,0,210.378,166Z" transform="translate(-131.383 -105.492)" fill="#fdc612"/>
    <path id="Path_4" data-name="Path 4" d="M78.886,141.983,15.9,78.995,78.886,16.007l62.988,62.988ZM157.88,78.995,78.886,0-.109,78.995,78.886,157.99Z" transform="translate(0.109 26)" fill="#fdc612"/>
    <g id="Text" transform="translate(191.197 74.584)">
      <path id="Path_5" data-name="Path 5" d="M897.229,128.3v2.141c0,6.168-1.885,10.108-6.082,12.078,5.054,1.971,7.024,6.511,7.024,12.848v4.883c0,9.252-4.883,14.22-14.306,14.22H869.047V114.507h14.22C893.033,114.507,897.229,119.047,897.229,128.3Zm-18.761-5.226v15.848h3.684c3.512,0,5.654-1.542,5.654-6.339v-3.341c0-4.283-1.458-6.168-4.8-6.168Zm0,24.414V165.9h5.4c3.17,0,4.883-1.458,4.883-5.911v-5.225c0-5.568-1.8-7.281-6.082-7.281Z" transform="translate(-869.047 -113.821)" fill="#fdc612"/>
      <path id="Path_6" data-name="Path 6" d="M1176.59,123.386c0-9.594,5.054-15.076,14.306-15.076s14.306,5.482,14.306,15.076v31.182c0,9.594-5.054,15.077-14.306,15.077s-14.306-5.482-14.306-15.077Zm9.423,31.781c0,4.283,1.885,5.911,4.883,5.911s4.883-1.628,4.883-5.911V122.787c0-4.283-1.885-5.911-4.883-5.911s-4.883,1.628-4.883,5.911Z" transform="translate(-1142.585 -108.31)" fill="#fdc612"/>
      <path id="Path_7" data-name="Path 7" d="M1490.34,114.507h14.906c9.423,0,14.049,5.225,14.049,14.82v30.325c0,9.594-4.627,14.82-14.049,14.82H1490.34Zm9.422,8.566V165.9h5.312c3,0,4.8-1.542,4.8-5.825V128.9c0-4.283-1.8-5.825-4.8-5.825Z" transform="translate(-1421.643 -113.821)" fill="#fdc612"/>
      <path id="Path_8" data-name="Path 8" d="M1778.81,154.6l-11.91-40.091h9.851l7.2,27.327,7.2-27.327h9L1788.232,154.6v19.874h-9.423Z" transform="translate(-1667.621 -113.821)" fill="#fdc612"/>
      <path id="Path_9" data-name="Path 9" d="M2101.57,114.507h9.422v51.4H2126.5v8.566H2101.57Z" transform="translate(-1965.285 -113.821)" fill="#fdc612"/>
      <path id="Path_10" data-name="Path 10" d="M2364.19,114.507h9.423v59.964h-9.423Z" transform="translate(-2198.865 -113.821)" fill="#fdc612"/>
      <path id="Path_11" data-name="Path 11" d="M2519.078,131.04v43.431H2510.6V114.507h11.822l9.68,35.893V114.507h8.395v59.964h-9.681Z" transform="translate(-2329.082 -113.821)" fill="#fdc612"/>
      <path id="Path_12" data-name="Path 12" d="M2851.583,139.778h12.937v8.566h-12.937V165.9h16.277v8.566h-25.7V114.507h25.7v8.566h-16.277Z" transform="translate(-2623.984 -113.821)" fill="#fdc612"/>
    </g>
  </g>
</svg>
